<svg width="200" height="220" viewBox="0 0 200 220" fill="none" xmlns="http://www.w3.org/2000/svg">
  <!-- Shield background -->
  <path d="M100 10L180 50V150L100 200L20 150V50L100 10Z" fill="#006847"/>
  <!-- Center white -->
  <path d="M100 30L160 60V140L100 170L40 140V60L100 30Z" fill="white"/>
  <!-- Lion silhouette -->
  <path d="M100 60C115 60 130 75 130 90C130 105 115 120 100 120C85 120 70 105 70 90C70 75 85 60 100 60Z" fill="#D4AF37"/>
  <!-- Circular border -->
  <path d="M100 50C120 50 140 70 140 90C140 110 120 130 100 130C80 130 60 110 60 90C60 70 80 50 100 50Z" stroke="#D4AF37" stroke-width="2" fill="none"/>
  <!-- Text (simplified) -->
  <text x="100" y="195" font-family="Arial" font-size="8" text-anchor="middle" fill="white">UNITY FREEDOM JUSTICE</text>
</svg>
